# xmcd
#
# Track frame offsets:
#	150
#	15091
#	29359
#	43414
#	52660
#	67115
#	78189
#	91787
#	105190
#	118747
#	131999
#	144783
#	156906
#	170439
#	184032
#	195698
#	206709
#	220531
#	232428
#	243874
#	256054
#	269225
#	283277
#	295695
#	308363
#
# Disc length: 4253 seconds
#
# Revision: 0
# Processed by: cddbd v1.5.1PL0 Copyright (c) Steve Scherf et al.
# Submitted via: dBpowerAMP V4.0
#
DISCID=61109b19
DTITLE=Sleepy John Estes - Someday Baby Blues
DYEAR=1900
DGENRE=Blues
TTITLE0=Broken Hearted, Ragged and Dirty Too
TTITLE1=Floating Bridge
TTITLE2=Lawyer Clark Blues
TTITLE3=Harlem Bound
TTITLE4=Divin' Duck Blues
TTITLE5=Liquor Store Blues
TTITLE6=Watcha Doin'
TTITLE7=Working Man Blues
TTITLE8=Someday Baby Blues
TTITLE9=The Girl I Love She Long Curly Hair
TTITLE10=Special Agent Blues
TTITLE11=Easin' Back to Tennessee
TTITLE12=Stone Blind Blues
TTITLE13=Milk Cow Blues
TTITLE14=Clean Up at Home
TTITLE15=Tell Me How About It
TTITLE16=I Ain't Gonna Be Worried No More
TTITLE17=Jack and Jill Blues
TTITLE18=You Shouldn't Do That
TTITLE19=Stop That Thing
TTITLE20=Hobo Jungle Blues
TTITLE21=Brownsville Blues
TTITLE22=Drop Down Mama
TTITLE23=Everybody Oughta Have a Change
TTITLE24=Time Is Drawing Near
EXTD=
EXTT0=
EXTT1=
EXTT2=
EXTT3=
EXTT4=
EXTT5=
EXTT6=
EXTT7=
EXTT8=
EXTT9=
EXTT10=
EXTT11=
EXTT12=
EXTT13=
EXTT14=
EXTT15=
EXTT16=
EXTT17=
EXTT18=
EXTT19=
EXTT20=
EXTT21=
EXTT22=
EXTT23=
EXTT24=
PLAYORDER=
